/* XPM */
static char *cfef8aee8dc54b9cab50dcd6e660fa9e6e8UslcCwHWZetfX[] = {
/* columns rows colors chars-per-pixel */
"64 64 11 1 ",
"  c None",
". c black",
"X c #000101",
"o c #010101",
"O c #010202",
"+ c #020202",
"@ c #020303",
"# c #030404",
"$ c #030505",
"% c #040505",
"& c #040606",
/* pixels */
"                                                                ",
"                                                                ",
"                                                                ",
"                                                                ",
"                                                                ",
"                                                                ",
"                                                                ",
"                                                                ",
"                                                                ",
"                                                                ",
"                                                                ",
"                             &&&&&&                             ",
"                            &&&&&&&&&                           ",
"                           &&&    &&&&                          ",
"                           &&&     &&&                          ",
"                           &&&     &&&                          ",
"                           &&&&&&&&&&                           ",
"                          &&&&&&&&&& &                          ",
"                         &&&&  &&   &&&                         ",
"                         &&& &&&    &&&                         ",
"                        &&&   &&&&   &&&                        ",
"                       &&&   & &&&&   &&&                       ",
"                       &&&   && &&&&  &&&$                      ",
"                      &&&  &&&   &&&&  &&&                      ",
"                     &&&  &&&&   &&&&&  &&&                     ",
"                     &&  &&&&     &&&&&  &&&                    ",
"                    &&&  &&&        &&&  &&&                    ",
"                   &&&  &&&         &&&&  &&&                   ",
"                  &&&   &&&          &&&   &&&                  ",
"                  &$$   &$            &&   &&&                  ",
"                 $OOOO &&              &    &&&                 ",
"                $OOO O &&              &&    &&&                ",
"                OOO OO                    &   &&                ",
"               &OOOOO                      && &&&               ",
"              &OOOOOOO                      && &&&              ",
"              #OOOOOOOO                     &&& &&              ",
"             &$OOO &OOO                   &&&&&&&&&             ",
"            &&OOO OOO#&&                 &&&&  &&&&&            ",
"            &&OOO  OOO&&&&             &&&&     &&&&            ",
"            &&OOO  OO OO&&            &&&&      &&&             ",
"              OOO$OOOOO  &&&&        &&&      &&&&              ",
"               O$&&OO     &&&&     &&&       &&&&               ",
"                  &&&       &&&& &&&&      &&&&                 ",
"                  &&&&       &&&&&&&      &&&&                  ",
"                    &&&&       &&&      & &&                    ",
"                     &&&&              &&&                      ",
"                       &&&&          &&&&                       ",
"                        &&&&        &&&&                        ",
"                          &&&&    &&&&                          ",
"                           &&&&  &&&&                           ",
"                                                                ",
"                               &&&                              ",
"                                                                ",
"                                                                ",
"                                                                ",
"                                                                ",
"                                                                ",
"                                                                ",
"                                                                ",
"                                                                ",
"                                                                ",
"                                                                ",
"                                                                ",
"                                                                "
};
