/* XPM */
static char *f4f00c3624834f65e0924bbe2ef129a986iKjrShcLl6NS8I[] = {
/* columns rows colors chars-per-pixel */
"32 32 11 1 ",
"  c None",
". c black",
"X c #000101",
"o c #010101",
"O c #010202",
"+ c #020202",
"@ c #020303",
"# c #030404",
"$ c #030505",
"% c #040505",
"& c #040606",
/* pixels */
"                                ",
"                                ",
"                                ",
"                                ",
"                                ",
"               &&               ",
"              &&&&&             ",
"             &&  &&             ",
"             &&&&&&             ",
"            &&&&  &&            ",
"            &  &&  &            ",
"           && & && &&           ",
"          && &&  && &&          ",
"          & &&    && &          ",
"         ## &      & &&         ",
"        @@@#&         &&        ",
"        @@             &        ",
"       @@@@           &&&       ",
"      #@@@@@         && &&      ",
"      #@@@@@&      &&   &&      ",
"       @@@@  &&   &&   &&       ",
"         #&   &&&&   &&         ",
"          &&    &   &&          ",
"            &&    &&            ",
"             &&  &&             ",
"               &&               ",
"                                ",
"                                ",
"                                ",
"                                ",
"                                ",
"                                "
};
