/* XPM */
static char *ed018872f317412bf7590cb98c51ebf8a4UDMSEX7rNL7BQE[] = {
/* columns rows colors chars-per-pixel */
"128 128 13 1 ",
"  c None",
". c black",
"X c #000101",
"o c #010101",
"O c #010202",
"+ c #020202",
"@ c #020303",
"# c #020404",
"$ c #030404",
"% c #030505",
"& c #030606",
"* c #040505",
"= c #040606",
/* pixels */
"                                                                                                                                ",
"                                                                                                                                ",
"                                                                                                                                ",
"                                                                                                                                ",
"                                                                                                                                ",
"                                                                                                                                ",
"                                                                                                                                ",
"                                                                                                                                ",
"                                                                                                                                ",
"                                                                                                                                ",
"                                                                                                                                ",
"                                                                                                                                ",
"                                                                                                                                ",
"                                                                                                                                ",
"                                                                                                                                ",
"                                                                                                                                ",
"                                                                                                                                ",
"                                                                                                                                ",
"                                                                                                                                ",
"                                                                                                                                ",
"                                                                                                                                ",
"                                                                                                                                ",
"                                                            =========                                                           ",
"                                                          =============                                                         ",
"                                                        =================                                                       ",
"                                                       ===================                                                      ",
"                                                      ========     ========                                                     ",
"                                                     =======         ======                                                     ",
"                                                     ======          =======                                                    ",
"                                                     ======           ======                                                    ",
"                                                     ======          =======                                                    ",
"                                                      ======         ======                                                     ",
"                                                      ========     ========                                                     ",
"                                                     =====================                                                      ",
"                                                    =====================                                                       ",
"                                                    ===================   ==                                                    ",
"                                                   ======   ========    =====                                                   ",
"                                                  =======              %======                                                  ",
"                                                  ======  ======        ======                                                  ",
"                                                 ======    =======       ======                                                 ",
"                                                ======%     =======       ======                                                ",
"                                                ======       =======      =======                                               ",
"                                               ======        =========     ======                                               ",
"                                              ======      ==  =========     ======                                              ",
"                                              ======     ====  =========    =======                                             ",
"                                             ======       ====  ==           ======                                             ",
"                                            ======    ====        ========    ======                                            ",
"                                            ======   =======      =========    ======                                           ",
"                                           =  ===   ========       =========   ======                                           ",
"                                          ===       =======        =========    ======                                          ",
"                                         ======    =======          =========    ======                                         ",
"                                         ======    =======           ========     =====                                         ",
"                                        ======      =====             ==%    =    ======                                        ",
"                                       ======    ==  ===                 ======    ======                                       ",
"                                       ======    ====                   =======     =====                                       ",
"                                      ======    ======                  ========    ======                                      ",
"                                     ======     ======                   =======     ======                                     ",
"                                     =====       ====                     =======     ======                                    ",
"                                    ======     =   ==                      ======     ======                                    ",
"                                   =====%o     ====                         =====      ======                                   ",
"                                   ==%ooooo    ====                          ==         ======                                  ",
"                                  =ooooooooo   ====                            %==       =====                                  ",
"                                 =%oooo   oo   ===                            ====       ======                                 ",
"                                 %ooooo   oo ====                              =====      ======                                ",
"                                =ooooo   oo====%                                  ====     =====                                ",
"                               =%oooo   ooo                                          ==    %=====                               ",
"                               =ooooo  %oo                                            ===   ======                              ",
"                              =oooooo ooo                                              ===   =====                              ",
"                             ==ooooo %oo                                                ==    =====                             ",
"                             =%ooooooooooooo                                             ==   ======                            ",
"                            ==ooooooooooooooo                                            ===   =====                            ",
"                           ===ooooooo%==oooooo                                         ======   =====                           ",
"                          %==%ooooooo====ooooo                                        ========   =====                          ",
"                          ===oooooo   ==ooooo%                                      ======== ==  =====%                         ",
"                         ====ooooo    ooooo%%==                                    =======    ==  =====                         ",
"                        %====ooooo  ooooo%=======                                ========      =========                        ",
"                        ====%ooooo   ooooo%=======                              =======         =========                       ",
"                       =====%ooooo    oooo  ===%====                          ========           ========                       ",
"                        ====%ooooo   ooooo   %oo====                         =======             =======                        ",
"                          ==oooooo   ooooo   oo%==   %=                    ========            =======                          ",
"                           =%oooo%=  ooooooooo    ======                  =======             =======                           ",
"                             ooooo==  ooooooo     ========              ==  ====            ========                            ",
"                             oooo%====ooooo         =======           %====  =             =======                              ",
"                                ======               ========        =======             ========                               ",
"                                 ==   ===              =======     ========             =======                                 ",
"                                    ======              ========  =======%            ========                                  ",
"                                    ========              ==============             =======                                    ",
"                                      =======              ===========             ========                                     ",
"                                       ========              ========               =====                                       ",
"                                         =======              %====             ===  ===                                        ",
"                                          ========              ==             =====                                            ",
"                                            =======                          ========                                           ",
"                                             ========                       =======                                             ",
"                                               =======                    ========                                              ",
"                                                ========                 =======                                                ",
"                                                  =======              ========                                                 ",
"                                                   ========           =======                                                   ",
"                                                     =======        ========                                                    ",
"                                                      ========     =======                                                      ",
"                                                        =======  %======                                                        ",
"                                                                                                                                ",
"                                                                                                                                ",
"                                                             =======                                                            ",
"                                                              =====                                                             ",
"                                                               ==                                                               ",
"                                                                                                                                ",
"                                                                                                                                ",
"                                                                                                                                ",
"                                                                                                                                ",
"                                                                                                                                ",
"                                                                                                                                ",
"                                                                                                                                ",
"                                                                                                                                ",
"                                                                                                                                ",
"                                                                                                                                ",
"                                                                                                                                ",
"                                                                                                                                ",
"                                                                                                                                ",
"                                                                                                                                ",
"                                                                                                                                ",
"                                                                                                                                ",
"                                                                                                                                ",
"                                                                                                                                ",
"                                                                                                                                ",
"                                                                                                                                ",
"                                                                                                                                ",
"                                                                                                                                ",
"                                                                                                                                "
};
