/* XPM */
static char *b5c397da1c7a498985762fb3c86be00bAFI0HrUefCj5i08o[] = {
/* columns rows colors chars-per-pixel */
"16 16 7 1 ",
"  c None",
". c #010101",
"X c #010202",
"o c #020303",
"O c #030505",
"+ c #040505",
"@ c #040606",
/* pixels */
"                ",
"                ",
"                ",
"       @@       ",
"       @@       ",
"      @@@@      ",
"      @ @@@     ",
"     O@  @@     ",
"    X      @    ",
"   XXX     @@   ",
"   XXX      @   ",
"     O          ",
"                ",
"                ",
"                ",
"                "
};
